<?xml version="1.0" encoding="utf-8"?>
<!-- Generator: Adobe Illustrator 22.0.1, SVG Export Plug-In . SVG Version: 6.00 Build 0)  -->
<svg version="1.1" id="레이어_1" xmlns="http://www.w3.org/2000/svg" xmlns:xlink="http://www.w3.org/1999/xlink" x="0px"
	 y="0px" viewBox="0 0 348 348" style="enable-background:new 0 0 348 348;" xml:space="preserve">
<style type="text/css">
	.st0{fill:none;stroke:#000000;stroke-width:2;}
	.st1{fill:none;stroke:#000000;stroke-width:2;stroke-miterlimit:10;}
</style>
<path class="st0" d="M5.1,5.8H342v337.7H5.1L5.1,5.8z"/>
<path class="st0" d="M282.7,40.6c0-8.4,7-15.2,15.6-15.2c4.1,0,8.1,1.6,11,4.4c2.9,2.8,4.6,6.7,4.6,10.7c0,8.4-7,15.2-15.6,15.2
	C289.7,55.7,282.7,48.9,282.7,40.6L282.7,40.6z"/>
<polygon class="st1" points="94.8,105.8 68.8,105.8 55.8,128.3 68.8,150.8 94.8,150.8 107.8,128.3 "/>
<polygon class="st1" points="185.5,105.8 159.6,105.8 146.6,128.3 159.6,150.8 185.5,150.8 198.5,128.3 "/>
<polygon class="st1" points="275.5,105.8 249.6,105.8 236.6,128.3 249.6,150.8 275.5,150.8 288.5,128.3 "/>
<polygon class="st1" points="94.8,158.4 68.8,158.4 55.8,180.9 68.8,203.4 94.8,203.4 107.8,180.9 "/>
<polygon class="st1" points="185.5,158.4 159.6,158.4 146.6,180.9 159.6,203.4 185.5,203.4 198.5,180.9 "/>
<polygon class="st1" points="275.5,158.4 249.6,158.4 236.6,180.9 249.6,203.4 275.5,203.4 288.5,180.9 "/>
<polygon class="st1" points="94.8,211 68.8,211 55.8,233.5 68.8,256 94.8,256 107.8,233.5 "/>
<polygon class="st1" points="185.5,211 159.6,211 146.6,233.5 159.6,256 185.5,256 198.5,233.5 "/>
<polygon class="st1" points="185.5,53.2 159.6,53.2 146.6,75.7 159.6,98.2 185.5,98.2 198.5,75.7 "/>
<polygon class="st1" points="185.5,262.1 159.6,262.1 146.6,284.5 159.6,307 185.5,307 198.5,284.5 "/>
<polygon class="st1" points="275.5,211 249.6,211 236.6,233.5 249.6,256 275.5,256 288.5,233.5 "/>
<polygon class="st1" points="230.8,79.3 204.8,79.3 191.8,101.8 204.8,124.3 230.8,124.3 243.7,101.8 "/>
<polygon class="st1" points="230.8,131.9 204.8,131.9 191.8,154.4 204.8,176.9 230.8,176.9 243.7,154.4 "/>
<polygon class="st1" points="230.8,184.5 204.8,184.5 191.8,207 204.8,229.5 230.8,229.5 243.7,207 "/>
<polygon class="st1" points="230.8,237.1 204.8,237.1 191.8,259.6 204.8,282.1 230.8,282.1 243.7,259.6 "/>
<polygon class="st1" points="140.2,237.1 114.2,237.1 101.2,259.6 114.2,282.1 140.2,282.1 153.1,259.6 "/>
<polygon class="st1" points="140.2,79.3 114.2,79.3 101.2,101.8 114.2,124.3 140.2,124.3 153.1,101.8 "/>
<polygon class="st1" points="140.2,131.9 114.2,131.9 101.2,154.4 114.2,176.9 140.2,176.9 153.1,154.4 "/>
<polygon class="st1" points="140.2,184.5 114.2,184.5 101.2,207 114.2,229.5 140.2,229.5 153.1,207 "/>
</svg>
